<svg xmlns="http://www.w3.org/2000/svg" width="20" height="20" viewBox="0 0 20 20">
  <g id="Group_23" data-name="Group 23" transform="translate(-49.5 -617.5)">
    <path id="Path_12" data-name="Path 12" d="M58.1,632.1l7.05-7.05-1.4-1.4L58.1,629.3l-2.85-2.85-1.4,1.4Zm1.4,5.4a9.738,9.738,0,0,1-3.9-.788,9.981,9.981,0,0,1-5.312-5.312,10.051,10.051,0,0,1,0-7.8,9.981,9.981,0,0,1,5.313-5.312,10.045,10.045,0,0,1,7.8,0,9.981,9.981,0,0,1,5.312,5.312,10.051,10.051,0,0,1,0,7.8,9.981,9.981,0,0,1-5.312,5.312A9.738,9.738,0,0,1,59.5,637.5Zm0-2a7.939,7.939,0,1,0-5.675-2.325A7.721,7.721,0,0,0,59.5,635.5Z" fill="#070707"/>
  </g>
</svg>
